<svg height='300px' width='300px'  fill="#000000" xmlns="http://www.w3.org/2000/svg" xmlns:xlink="http://www.w3.org/1999/xlink" version="1.1" x="0px" y="0px" viewBox="0 0 100 100" enable-background="new 0 0 100 100" xml:space="preserve"><g><path d="M67.911,7.699h-0.039c-1.103,0-1.974,0.89-1.974,1.992c0,1.101,0.914,1.992,2.013,1.992c1.103,0,1.991-0.891,1.991-1.992   C69.902,8.589,69.014,7.699,67.911,7.699z"></path><path d="M68.382,1.833H32.531c-4.912,0-8.908,3.996-8.908,8.908v75.685c0,4.912,3.996,8.908,8.908,8.908h35.851   c4.91,0,8.906-3.996,8.906-8.908V10.741C77.288,5.829,73.292,1.833,68.382,1.833z M75.407,86.426c0,3.873-3.152,7.026-7.025,7.026   H32.531c-3.874,0-7.026-3.153-7.026-7.026v-4.316h49.902V86.426z M75.407,80.227H25.505V17.657h49.902V80.227z M75.407,15.774   H25.505v-5.033c0-3.874,3.152-7.025,7.026-7.025h35.851c3.873,0,7.025,3.151,7.025,7.025V15.774z"></path><path d="M46.092,89.301h7.977c1.103,0,1.994-0.892,1.994-1.994c0-1.102-0.894-1.992-1.994-1.992h-7.977   c-1.101,0-1.994,0.892-1.994,1.992C44.098,88.409,44.991,89.301,46.092,89.301z"></path><path d="M40.102,54.564c1.845,0,3.563-0.826,4.729-2.271l9.457,5.482c-0.279,0.716-0.421,1.461-0.421,2.221   c0,3.352,2.727,6.078,6.078,6.078c3.351,0,6.078-2.727,6.078-6.078s-2.728-6.078-6.078-6.078c-1.846,0-3.563,0.827-4.729,2.273   l-9.458-5.483c0.563-1.437,0.563-3.005,0-4.441l9.458-5.483c1.167,1.446,2.884,2.272,4.729,2.272c3.352,0,6.078-2.727,6.078-6.078   S63.297,30.9,59.945,30.9c-3.353,0-6.078,2.727-6.078,6.078c0,0.76,0.142,1.506,0.421,2.221l-9.457,5.483   c-1.167-1.446-2.884-2.272-4.729-2.272c-3.352,0-6.078,2.727-6.078,6.078C34.023,51.839,36.75,54.564,40.102,54.564z    M59.945,55.756c2.339,0,4.24,1.902,4.24,4.24c0,2.339-1.901,4.24-4.24,4.24c-2.34,0-4.241-1.901-4.241-4.24   C55.704,57.658,57.605,55.756,59.945,55.756z M59.945,32.737c2.339,0,4.24,1.902,4.24,4.241s-1.901,4.241-4.24,4.241   c-2.34,0-4.241-1.902-4.241-4.241S57.605,32.737,59.945,32.737z M40.102,44.247c2.338,0,4.241,1.902,4.241,4.24   c0,2.339-1.902,4.242-4.241,4.242s-4.241-1.901-4.241-4.242C35.861,46.149,37.763,44.247,40.102,44.247z"></path></g></svg>